<?xml version="1.0" encoding="UTF-8"?> <svg xmlns="http://www.w3.org/2000/svg" xmlns:xlink="http://www.w3.org/1999/xlink" width="500" zoomAndPan="magnify" viewBox="0 0 375 374.999991" height="500" preserveAspectRatio="xMidYMid meet" version="1.0"><defs><clipPath id="dd1d41ab56"><path d="M 10.570312 187.882812 L 44.808594 187.882812 L 44.808594 233.8125 L 10.570312 233.8125 Z M 10.570312 187.882812 " clip-rule="nonzero"></path></clipPath><clipPath id="1e75b74901"><path d="M 75.199219 0 L 285.597656 0 L 285.597656 190 L 75.199219 190 Z M 75.199219 0 " clip-rule="nonzero"></path></clipPath><clipPath id="4130fbcddb"><path d="M 195.269531 0 C 106.007812 78.875 81.703125 152.070312 75.199219 189.710938 L 131.652344 189.710938 C 137.078125 169.917969 148.609375 143.03125 173.867188 115.941406 L 173.40625 118.179688 C 171.789062 127 190.164062 159.640625 216.285156 176.042969 L 217.058594 176.535156 C 218.457031 177.367188 219.433594 178.035156 220.226562 178.6875 C 224.441406 181.789062 228.136719 185.523438 231.25 189.71875 L 285.582031 189.71875 C 279.363281 165.078125 264.691406 143.789062 244.792969 129.164062 C 243.160156 127.824219 241.144531 126.441406 238.726562 125.003906 L 237.828125 124.449219 C 237.136719 124.023438 236.902344 123.871094 236.664062 123.730469 C 182.914062 89.953125 190.996094 22.753906 194.316406 4.613281 Z M 195.269531 0 " clip-rule="nonzero"></path></clipPath><clipPath id="a2d69882d1"><path d="M 317.046875 187.882812 L 351.285156 187.882812 L 351.285156 233.8125 L 317.046875 233.8125 Z M 317.046875 187.882812 " clip-rule="nonzero"></path></clipPath><clipPath id="f295754611"><path d="M 258.769531 288.070312 L 316 288.070312 L 316 345.773438 L 258.769531 345.773438 Z M 258.769531 288.070312 " clip-rule="nonzero"></path></clipPath><clipPath id="714cccb61d"><path d="M 283.003906 345.40625 L 258.796875 321.195312 L 291.277344 288.726562 L 315.484375 312.933594 Z M 283.003906 345.40625 " clip-rule="nonzero"></path></clipPath><clipPath id="5c83086d74"><path d="M 46.363281 288.070312 L 103.949219 288.070312 L 103.949219 345.773438 L 46.363281 345.773438 Z M 46.363281 288.070312 " clip-rule="nonzero"></path></clipPath><clipPath id="caeb465e3e"><path d="M 78.839844 345.40625 L 46.371094 312.925781 L 70.578125 288.71875 L 103.058594 321.1875 Z M 78.839844 345.40625 " clip-rule="nonzero"></path></clipPath><clipPath id="0829dc19db"><path d="M 157.960938 336.039062 L 203.894531 336.039062 L 203.894531 370.277344 L 157.960938 370.277344 Z M 157.960938 336.039062 " clip-rule="nonzero"></path></clipPath><clipPath id="e4becb079e"><path d="M 73 218.378906 L 288.980469 218.378906 L 288.980469 315 L 73 315 Z M 73 218.378906 " clip-rule="nonzero"></path></clipPath><clipPath id="575a2d3c16"><path d="M 239.171875 218.679688 C 233.699219 245.855469 209.71875 266.324219 180.933594 266.324219 C 152.148438 266.324219 133.574219 245.847656 128.535156 218.679688 L 74.578125 218.679688 C 74.246094 218.679688 73.933594 218.660156 73.625 218.632812 C 79.484375 272.75 125.253906 314.890625 180.921875 314.890625 C 236.582031 314.890625 282.34375 272.78125 288.222656 218.679688 Z M 239.171875 218.679688 " clip-rule="nonzero"></path></clipPath></defs><g clip-path="url(#dd1d41ab56)"><path fill="#1c203f" d="M 10.570312 187.882812 L 44.808594 187.882812 L 44.808594 233.8125 L 10.570312 233.8125 Z M 10.570312 187.882812 " fill-opacity="1" fill-rule="nonzero"></path></g><g clip-path="url(#1e75b74901)"><g clip-path="url(#4130fbcddb)"><path fill="#d0674e" d="M 75.199219 0 L 285.597656 0 L 285.597656 189.707031 L 75.199219 189.707031 Z M 75.199219 0 " fill-opacity="1" fill-rule="nonzero"></path></g></g><g clip-path="url(#a2d69882d1)"><path fill="#1c203f" d="M 41.644531 183.15625 L 356.007812 183.15625 L 356.007812 375 L 41.644531 375 Z M 41.644531 183.15625 " fill-opacity="1" fill-rule="nonzero"></path></g><g clip-path="url(#f295754611)"><g clip-path="url(#714cccb61d)"><path fill="#1c203f" d="M 41.644531 183.15625 L 356.007812 183.15625 L 356.007812 375 L 41.644531 375 Z M 41.644531 183.15625 " fill-opacity="1" fill-rule="nonzero"></path></g></g><g clip-path="url(#5c83086d74)"><g clip-path="url(#caeb465e3e)"><path fill="#1c203f" d="M 41.644531 183.15625 L 356.007812 183.15625 L 356.007812 375 L 41.644531 375 Z M 41.644531 183.15625 " fill-opacity="1" fill-rule="nonzero"></path></g></g><g clip-path="url(#0829dc19db)"><path fill="#1c203f" d="M 41.644531 183.15625 L 356.007812 183.15625 L 356.007812 375 L 41.644531 375 Z M 41.644531 183.15625 " fill-opacity="1" fill-rule="nonzero"></path></g><g clip-path="url(#e4becb079e)"><g clip-path="url(#575a2d3c16)"><path fill="#1c203f" d="M 41.644531 183.15625 L 356.007812 183.15625 L 356.007812 375 L 41.644531 375 Z M 41.644531 183.15625 " fill-opacity="1" fill-rule="nonzero"></path></g></g></svg> 